<svg width="85" height="85" viewBox="0 0 85 85" fill="none" xmlns="http://www.w3.org/2000/svg">
<g id="Frame" clip-path="url(#clip0_1_94)">
<path id="Vector" d="M11.9505 84.9999C14.8026 84.9999 17.5623 83.9632 19.7267 82.0806L23.7406 78.8941C26.4352 76.7544 29.9448 75.7679 33.3706 76.1857C35.5437 76.4514 38.1589 76.651 41.1107 76.651C51.9704 76.651 67.3943 73.9542 82.1449 61.9291C86.8697 58.0777 84.8685 51.5942 82.2894 45.7582C78.6585 37.5457 71.0628 25.0726 60.7754 8.87302C59.3666 6.65296 57.3554 4.95273 54.9598 3.95327C48.7093 1.34836 43.7982 0.129188 39.0388 0.00281948C36.7631 -0.0589287 34.5828 0.990791 32.7334 3.03566C31.0285 4.92114 28.7875 10.3851 28.0333 14.4993C27.5073 17.3641 28.6401 19.0916 29.6833 20.0351C32.56 22.6386 38.3857 22.6802 47.9609 20.1528C51.3476 24.7208 51.8302 29.2787 52.3374 34.0835C52.5642 36.2275 52.7939 38.4088 53.2939 40.6001C47.6112 38.1316 42.6625 38.6457 39.1977 39.727C36.6707 40.5154 34.6479 41.6857 33.2666 42.6479C30.9851 39.5016 27.8657 37.247 24.1278 36.0667C20.1934 34.8245 15.8415 34.8633 11.8768 36.1772C9.92765 36.8234 8.3383 36.7215 7.01769 35.867C5.62051 34.9624 3.84188 34.892 2.37534 35.6818C0.908801 36.4716 -0.00146484 37.9923 -0.00146484 39.6495V72.8729C-0.00146484 79.5589 5.35899 84.9985 11.949 84.9985L11.9505 84.9999ZM4.33458 39.6509C4.33458 39.6107 4.33458 39.5289 4.44294 39.47C4.48195 39.4484 4.51663 39.4413 4.54553 39.4413C4.5961 39.4413 4.63222 39.4642 4.65389 39.4786C6.34872 40.5757 9.21533 41.6024 13.2494 40.2641C18.9653 38.3686 26.9005 39.6265 30.8161 46.8625C31.1412 47.4628 31.7292 47.8778 32.4069 47.9769C33.086 48.076 33.7679 47.8534 34.252 47.3709C34.6406 46.9903 43.9239 38.1417 56.0969 47.2201C56.9132 47.829 58.0446 47.7888 58.8161 47.1268C59.5877 46.4633 59.7885 45.3562 59.3016 44.4658C57.4348 41.0639 57.0534 37.4538 56.6488 33.6312C56.0853 28.295 55.4453 22.248 50.4345 16.3115C49.8869 15.6625 49.0084 15.3939 48.1877 15.6222C36.1765 18.9768 33.2218 17.4086 32.6019 16.8472C32.4502 16.7093 32.0933 16.3862 32.2985 15.2704C32.9733 11.5943 34.9961 6.9775 35.9584 5.91342C36.9452 4.82205 37.945 4.27781 38.9232 4.30653C43.1206 4.41853 47.5505 5.53431 53.2837 7.92526C54.8543 8.58008 56.1778 9.70303 57.1097 11.1706C67.2932 27.2079 74.7978 39.5217 78.3204 47.4901C81.7519 55.2517 80.7896 57.4602 79.3954 58.5976C61.8821 72.8743 43.372 73.0667 33.898 71.9093C29.3235 71.3507 24.6349 72.669 21.0343 75.5266L16.98 78.7447C16.9526 78.7677 16.9251 78.7907 16.8977 78.8136C15.5193 80.0242 13.7609 80.6905 11.9476 80.6905C7.7488 80.6905 4.33169 77.1838 4.33169 72.8729V39.6495L4.33458 39.6509Z" fill="#FF3103"/>
<path id="Vector_2" d="M29.6818 64.6761C33.7087 67.0269 38.4955 68.2762 43.3632 68.2762C44.0987 68.2762 44.8356 68.2475 45.5724 68.19C51.4068 67.7334 56.8279 65.4501 60.8403 61.7596C61.7188 60.9511 61.7723 59.5884 60.9588 58.7153C60.1454 57.8422 58.7742 57.789 57.8957 58.5975C51.2421 64.7178 40.0559 65.7345 31.8766 60.9597C30.8449 60.3566 29.5157 60.6998 28.9103 61.7266C28.3034 62.7519 28.6502 64.073 29.6818 64.6747V64.6761Z" fill="#FF3103"/>
<path id="Vector_3" d="M10.6992 74.4138C11.0864 74.4138 11.4794 74.3104 11.8334 74.0935C15.7548 71.694 17.2719 67.6445 18.6098 64.0702C19.7946 60.9082 20.9129 57.9213 23.4732 56.1579C24.4572 55.4801 24.7014 54.1388 24.0208 53.1609C23.3389 52.183 21.9894 51.9403 21.0054 52.6167C17.3268 55.1498 15.8501 59.0902 14.5483 62.5667C13.2956 65.9126 12.2119 68.8019 9.56062 70.4246C8.54199 71.0478 8.22412 72.3747 8.85119 73.3885C9.26008 74.049 9.97096 74.4138 10.6992 74.4138Z" fill="#FF3103"/>
</g>
<defs>
<clipPath id="clip0_1_94">
<rect width="85" height="85" fill="white"/>
</clipPath>
</defs>
</svg>
