<svg width="65" height="85" viewBox="0 0 65 85" fill="none" xmlns="http://www.w3.org/2000/svg">
<g id="Frame" clip-path="url(#clip0_1_79)">
<path id="Vector" d="M61.4221 44.9772C58.5015 34.1533 55.9806 24.807 63.7877 1.88787C64.1759 0.750269 63.5763 -0.490486 62.4503 -0.882762C61.3229 -1.27504 60.0963 -0.66919 59.708 0.468411C55.9591 11.4739 54.2291 20.2435 54.2622 28.0672C54.2881 34.1243 55.3537 38.9187 56.6206 43.7321C53.5705 45.0223 50.2875 46.048 46.8348 46.7977C46.9369 46.7003 47.039 46.603 47.1411 46.5057C48.8351 44.8944 50.5866 43.228 51.4034 41.162C51.8449 40.0447 51.3071 38.7764 50.2012 38.3289C49.094 37.8828 47.84 38.4262 47.3971 39.5435C46.9341 40.7145 45.5363 42.0439 44.1831 43.3311C42.712 44.7302 41.2064 46.1671 40.335 47.8554C37.7796 48.1401 35.1595 48.2854 32.4963 48.2854C29.8331 48.2854 27.2145 48.1401 24.662 47.8554C23.792 46.1657 22.2849 44.7288 20.8138 43.3297C19.4621 42.0439 18.0629 40.713 17.5999 39.542C17.1584 38.4248 15.903 37.8799 14.7957 38.3274C13.6899 38.7735 13.1506 40.0418 13.5935 41.1605C14.4103 43.2265 16.1618 44.893 17.8558 46.5042C17.9579 46.6015 18.06 46.6989 18.1621 46.7962C14.708 46.048 11.4264 45.0208 8.37639 43.7307C9.64329 38.9173 10.7089 34.1228 10.7347 28.0658C10.7678 20.242 9.03788 11.4725 5.28896 0.466958C4.90501 -0.667737 3.67694 -1.27213 2.55096 -0.881309C1.42356 -0.489033 0.82534 0.750269 1.21217 1.88932C9.01919 24.807 6.49833 34.1548 3.57771 44.9772C1.7428 51.7796 -0.277623 59.2706 0.0315518 70.7875C0.0286758 70.8675 0.0315518 70.9459 0.0373039 71.0244C0.143717 74.6319 0.477338 78.6331 1.11726 83.1297C1.27113 84.2165 2.19434 84.9996 3.24984 84.9996C3.35194 84.9996 3.45548 84.9923 3.55902 84.9778C4.73819 84.8063 5.55643 83.7021 5.38818 82.5108C4.94096 79.3653 4.6476 76.4872 4.47935 73.8299C8.82074 75.0764 17.3223 77.1889 26.2596 77.6044C25.7017 79.1924 25.2113 80.7572 24.9855 82.5428C24.8345 83.737 25.67 84.8281 26.8521 84.9807C26.9456 84.9923 27.0376 84.9981 27.1282 84.9981C28.1981 84.9981 29.1256 84.1947 29.2651 83.0948C29.4779 81.4168 30.0301 79.8767 30.6715 78.0926C30.8958 77.4693 31.1259 76.8242 31.3517 76.1487V76.1428C31.7845 74.8512 32.1972 73.4434 32.5021 71.8365C32.8069 73.4434 33.2182 74.8512 33.6496 76.1428V76.1458C33.8768 76.8213 34.1083 77.4679 34.3327 78.0911C34.974 79.8753 35.5262 81.4153 35.7391 83.0934C35.8785 84.1932 36.8061 84.9967 37.876 84.9967C37.9666 84.9967 38.06 84.9909 38.1521 84.9792C39.3341 84.8267 40.1696 83.7356 40.0186 82.5413C39.7928 80.7557 39.3025 79.191 38.7445 77.603C47.6804 77.1875 56.182 75.075 60.5234 73.8284C60.3551 76.4857 60.0617 79.3639 59.6145 82.5093C59.4448 83.7007 60.2645 84.8049 61.4437 84.9763C61.5472 84.9909 61.6508 84.9981 61.7529 84.9981C62.8084 84.9981 63.7316 84.215 63.8854 83.1283C64.5239 78.6345 64.859 74.6348 64.9654 71.0287C64.9726 70.9474 64.974 70.8645 64.9726 70.7817C65.2803 59.2692 63.2613 51.7781 61.4264 44.9772H61.4221ZM37.2821 73.2952C36.9686 72.2012 36.7025 71.0258 36.5271 69.7081C38.9041 68.6707 40.8297 66.7137 41.8305 64.161C42.2691 63.0423 41.727 61.7754 40.6197 61.3322C39.5124 60.8891 38.2585 61.4368 37.8199 62.5556C36.9585 64.7538 34.8892 66.1747 32.5466 66.1747C30.2041 66.1747 28.1362 64.7538 27.2734 62.5556C26.8348 61.4368 25.5809 60.8891 24.4736 61.3322C23.3663 61.7754 22.8242 63.0423 23.2628 64.161C24.2507 66.6817 26.1403 68.6213 28.477 69.6674C28.3016 71.0011 28.0327 72.1896 27.7163 73.2952C17.7882 73.0264 7.91047 70.3212 4.30535 69.2315C4.21044 60.1859 5.6686 53.8906 7.24179 47.976C11.9844 49.9214 17.2159 51.2798 22.7422 52.012C22.8213 52.0266 22.9018 52.0382 22.9838 52.044C26.0756 52.4421 29.2579 52.647 32.4963 52.647C35.7347 52.647 38.9185 52.4436 42.0103 52.044C42.0937 52.0382 42.1771 52.0266 42.259 52.0106C47.7839 51.2783 53.0154 49.9199 57.7566 47.9745C59.3298 53.8892 60.7865 60.1845 60.693 69.2315C57.0908 70.3212 47.2245 73.0264 37.2821 73.2938V73.2952Z" fill="#FF3103"/>
<path id="Vector_2" d="M30.3438 39.9579V42.1546C30.3438 43.3576 31.3101 44.3339 32.5008 44.3339C33.6915 44.3339 34.6578 43.3576 34.6578 42.1546V39.9579C34.6578 38.7549 33.6915 37.7786 32.5008 37.7786C31.3101 37.7786 30.3438 38.7549 30.3438 39.9579Z" fill="#FF3103"/>
<path id="Vector_3" d="M28.135 -0.311225L26.5158 1.43368C25.8514 2.14849 24.9153 2.55966 23.9446 2.55966H11.2339C10.0433 2.55966 9.0769 3.53599 9.0769 4.73897C9.0769 5.94195 10.0433 6.91828 11.2339 6.91828H23.9432C26.1016 6.91828 28.1853 6.00587 29.6622 4.41498L31.2814 2.67007C32.0968 1.79254 32.0522 0.412307 31.1836 -0.41002C30.315 -1.2338 28.9489 -1.18876 28.135 -0.311225Z" fill="#FF3103"/>
<path id="Vector_4" d="M55.9232 4.73897C55.9232 3.53599 54.9569 2.55966 53.7662 2.55966H41.057C40.0863 2.55966 39.1487 2.14994 38.4858 1.43368L36.8666 -0.311225C36.0512 -1.18876 34.6865 -1.2338 33.818 -0.41002C32.9494 0.413759 32.9048 1.79254 33.7202 2.67007L35.3394 4.41498C36.8162 6.00587 38.8999 6.91828 41.0584 6.91828H53.7676C54.9583 6.91828 55.9247 5.94195 55.9247 4.73897H55.9232Z" fill="#FF3103"/>
<path id="Vector_5" d="M18.9905 26.4986H24.2364C26.2799 26.4986 28.2269 25.916 29.721 24.8583L30.7665 24.1188C31.7415 23.4287 31.9787 22.0688 31.2942 21.0837C30.6112 20.0987 29.2652 19.859 28.2902 20.5505L27.2448 21.29C26.4812 21.8305 25.384 22.1414 24.2364 22.1414H18.9905C17.7998 22.1414 16.8335 23.1178 16.8335 24.3207C16.8335 25.5237 17.7998 26.5 18.9905 26.5V26.4986Z" fill="#FF3103"/>
<path id="Vector_6" d="M46.0094 22.1398H40.7635C39.6145 22.1398 38.5187 21.8304 37.7552 21.2884L36.7097 20.5489C35.7347 19.8588 34.3887 20.0971 33.7057 21.0821C33.0226 22.0672 33.2585 23.4271 34.2349 24.1172L35.2803 24.8567C36.7744 25.9144 38.7215 26.497 40.7649 26.497H46.0108C47.2015 26.497 48.1679 25.5207 48.1679 24.3177C48.1679 23.1147 47.2015 22.1384 46.0108 22.1384L46.0094 22.1398Z" fill="#FF3103"/>
<path id="Vector_7" d="M18.9905 35.3101H24.2364C26.2799 35.3101 28.2269 34.7275 29.721 33.6698L30.7665 32.9303C31.7415 32.2402 31.9787 30.8803 31.2942 29.8953C30.6112 28.9102 29.2652 28.6705 28.2902 29.3621L27.2448 30.1016C26.4812 30.642 25.384 30.9529 24.2364 30.9529H18.9905C17.7998 30.9529 16.8335 31.9293 16.8335 33.1323C16.8335 34.3352 17.7998 35.3116 18.9905 35.3116V35.3101Z" fill="#FF3103"/>
<path id="Vector_8" d="M46.0094 30.9516H40.7635C39.6145 30.9516 38.5187 30.6421 37.7552 30.1002L36.7097 29.3607C35.7347 28.6706 34.3887 28.9088 33.7057 29.8939C33.0226 30.8789 33.2585 32.2388 34.2349 32.9289L35.2803 33.6685C36.7744 34.7262 38.7215 35.3088 40.7649 35.3088H46.0108C47.2015 35.3088 48.1679 34.3324 48.1679 33.1294C48.1679 31.9265 47.2015 30.9501 46.0108 30.9501L46.0094 30.9516Z" fill="#FF3103"/>
</g>
<defs>
<clipPath id="clip0_1_79">
<rect width="65" height="86" fill="white" transform="translate(0 -1)"/>
</clipPath>
</defs>
</svg>
