<svg width="36" height="22" viewBox="0 0 36 22" fill="none" xmlns="http://www.w3.org/2000/svg">
<path d="M0 2C0 0.895431 0.895431 0 2 0H34C35.1046 0 36 0.895431 36 2C36 3.10457 35.1046 4 34 4H2C0.895432 4 0 3.10457 0 2Z" fill="url(#paint0_linear_348_58)"/>
<path d="M0 11C0 9.89543 0.895431 9 2 9H34C35.1046 9 36 9.89543 36 11C36 12.1046 35.1046 13 34 13H2C0.895432 13 0 12.1046 0 11Z" fill="url(#paint1_linear_348_58)"/>
<path d="M0 20C0 18.8954 0.895431 18 2 18H34C35.1046 18 36 18.8954 36 20C36 21.1046 35.1046 22 34 22H2C0.895432 22 0 21.1046 0 20Z" fill="url(#paint2_linear_348_58)"/>
<defs>
<linearGradient id="paint0_linear_348_58" x1="18" y1="0" x2="18" y2="22" gradientUnits="userSpaceOnUse">
<stop stop-color="#FF3103"/>
<stop offset="1" stop-color="#F7A627"/>
</linearGradient>
<linearGradient id="paint1_linear_348_58" x1="18" y1="0" x2="18" y2="22" gradientUnits="userSpaceOnUse">
<stop stop-color="#FF3103"/>
<stop offset="1" stop-color="#F7A627"/>
</linearGradient>
<linearGradient id="paint2_linear_348_58" x1="18" y1="0" x2="18" y2="22" gradientUnits="userSpaceOnUse">
<stop stop-color="#FF3103"/>
<stop offset="1" stop-color="#F7A627"/>
</linearGradient>
</defs>
</svg>
