<svg width="80" height="80" viewBox="0 0 80 80" fill="none" xmlns="http://www.w3.org/2000/svg">
<g id="Frame" clip-path="url(#clip0_1_104)">
<path id="Vector" d="M19.8585 54.7001C24.44 56.9152 26.5428 60.0952 28.9782 63.778C31.7825 68.0204 34.9611 72.829 42.4185 76.6591C47.5378 79.2891 52.7978 79.9986 56.9859 79.9986C58.0833 79.9986 59.1077 79.95 60.0349 79.8743C65.6029 79.4202 70.9696 77.7254 74.7577 75.2238C78.3337 72.8627 80.1906 69.9638 79.9852 67.0595C79.8568 65.2309 78.9108 63.5983 77.335 62.0738C77.2768 62.0116 77.2147 61.9535 77.1485 61.8981C74.0725 59.0276 68.7599 56.5354 62.4634 53.8405L53.8505 31.2329L56.194 27.0297C56.6575 26.1986 56.4805 25.1579 55.7683 24.5268C55.4345 24.2308 52.4031 21.6616 48.8015 22.6022C46.5945 23.1793 44.8228 24.9025 43.5213 27.7325C39.7737 26.7486 35.6936 25.0457 33.5259 22.1171C32.0055 20.0614 31.6365 17.6261 32.4014 14.669C32.5663 14.0311 32.4109 13.3527 31.9838 12.8499C31.5568 12.3472 30.9121 12.0836 30.2567 12.1417C19.0544 13.1445 11.2429 23.1091 9.26029 25.9026C7.36554 26.3932 2.9949 27.9352 0.947426 32.0316C-0.149964 34.2264 -0.298625 36.5361 0.506848 38.8985C2.27727 44.0936 8.60618 49.2604 19.8544 54.6987L19.8585 54.7001ZM49.8151 26.5297C50.4597 26.3553 51.1395 26.5094 51.7112 26.7473L50.4827 28.9515C49.7691 28.884 48.7839 28.7704 47.6352 28.588C48.2879 27.4446 49.0258 26.7419 49.8151 26.5283V26.5297ZM27.9889 16.6314C27.7997 19.579 28.5646 22.2292 30.2742 24.5362C35.1219 31.0761 46.2918 32.6465 50.1867 33.0006L50.9868 35.0995C49.7056 35.4563 47.6973 35.7509 45.1363 35.2711C44.0349 35.0657 42.9767 35.7901 42.7699 36.8902C42.5631 37.9903 43.2888 39.0499 44.3889 39.2566C45.589 39.481 46.7067 39.5729 47.7298 39.5729C49.6664 39.5729 51.2611 39.2472 52.4288 38.8904L53.3829 41.3933C52.099 41.7488 50.0813 42.0461 47.5338 41.569C46.4324 41.3636 45.3742 42.088 45.1674 43.1881C44.9606 44.2882 45.6863 45.3478 46.7864 45.5546C47.9865 45.7789 49.1042 45.8708 50.1273 45.8708C52.0639 45.8708 53.6586 45.5451 54.8263 45.1883L55.7818 47.6953C54.5006 48.0521 52.4923 48.3467 49.9313 47.867C48.8298 47.6615 47.7717 48.3859 47.5649 49.4861C47.3581 50.5862 48.0838 51.6457 49.1839 51.8525C50.384 52.0769 51.5017 52.1688 52.5248 52.1688C54.4614 52.1688 56.0561 51.843 57.2238 51.4863L57.9833 53.4811C56.1629 53.8811 54.2763 54.8393 52.3437 56.3489C51.2382 57.2125 50.3205 58.1045 49.6826 58.7775C48.5352 57.9234 46.0148 55.0907 43.3537 45.8762C40.667 36.5753 34.257 34.6197 29.5755 33.1912C25.0157 31.8005 22.7263 31.1018 23.4318 25.3944C23.5696 24.2835 22.7804 23.2712 21.6694 23.1334C20.5599 22.9955 19.5463 23.7848 19.4084 24.8957C18.9111 28.9123 19.6598 31.8343 21.6978 33.8277C23.475 35.5684 25.8644 36.2969 28.393 37.0672C32.8123 38.4147 37.3816 39.8094 39.4588 46.9993C41.3765 53.6378 43.5848 58.3153 46.0202 60.9034C47.9041 62.905 49.4988 63.1807 50.2313 63.1807C50.3543 63.1807 50.4516 63.1726 50.5246 63.1645C51.0503 63.1009 51.5314 62.832 51.8639 62.4198C53.1126 60.8683 57.0197 57.0071 60.3416 57.345C64.4636 59.1005 68.3977 60.8318 71.375 62.6522C71.9588 63.009 72.471 63.3496 72.9197 63.6713C69.3356 66.7892 62.3688 67.9352 56.9968 67.9352C53.6181 67.9352 50.4813 67.2419 47.9257 65.9283C43.278 63.5415 41.4995 60.8507 39.0371 57.126C36.3801 53.1067 32.7407 47.6007 25.117 43.8449C15.477 39.0958 12.5944 34.963 11.874 32.3343C11.2915 30.2098 12.1159 28.911 12.1511 28.8569C12.1362 28.8813 12.1267 28.8921 12.1267 28.8921H12.124C12.1443 28.8623 12.1659 28.8353 12.1862 28.8056C12.2551 28.6988 18.5989 18.9938 27.9848 16.6314H27.9889ZM4.57746 33.8466C5.26941 32.4627 6.46005 31.5153 7.61556 30.8801C7.61826 31.5775 7.70205 32.3438 7.90883 33.1749C9.1765 38.2511 14.3648 43.0651 23.3304 47.4818C29.9674 50.7524 33.1245 55.5259 35.6598 59.3614C38.2506 63.2793 40.4873 66.6635 46.0783 69.534C49.2042 71.1396 52.9816 71.9883 57.0022 71.9883C60.216 71.9883 70.2222 71.564 75.7402 66.5959C75.8673 66.8811 75.9267 67.1311 75.9416 67.3446C76.0362 68.6853 74.7591 70.3652 72.5251 71.8397C68.7329 74.3426 63.0229 75.9495 57.0846 75.9495C52.7126 75.9495 48.2149 75.0778 44.2714 73.052C37.7586 69.707 35.0138 65.5566 32.3609 61.5413C29.8282 57.7099 27.2091 53.7473 21.6235 51.0484C9.06838 44.9802 5.29915 40.3811 4.34906 37.5916C3.90038 36.2766 3.97606 35.0508 4.57881 33.8453L4.57746 33.8466Z" fill="#FF3103"/>
<path id="Vector_2" d="M41.2561 0.435199C40.3763 -0.258115 39.1019 -0.106748 38.4086 0.773071L32.9406 7.71296C32.2473 8.59278 32.3986 9.86724 33.2784 10.5605C33.6501 10.8538 34.092 10.9957 34.5312 10.9957C35.1313 10.9957 35.7246 10.7308 36.1246 10.2227L41.5926 3.28278C42.2859 2.40297 42.1346 1.12851 41.2548 0.435199H41.2561Z" fill="#FF3103"/>
<path id="Vector_3" d="M70.1734 0.772957L56.0182 18.7396C55.3249 19.6195 55.4763 20.8939 56.3561 21.5872C56.7277 21.8805 57.1696 22.0224 57.6089 22.0224C58.2089 22.0224 58.8022 21.7575 59.2023 21.2494L73.3589 3.28132C74.0522 2.4015 73.9008 1.12705 73.021 0.433734C72.1412 -0.25958 70.8667 -0.108213 70.1734 0.771606V0.772957Z" fill="#FF3103"/>
</g>
<defs>
<clipPath id="clip0_1_104">
<rect width="80" height="80" fill="white"/>
</clipPath>
</defs>
</svg>
