<svg width="208" height="43" viewBox="0 0 208 43" fill="none" xmlns="http://www.w3.org/2000/svg">
<path d="M10.1304 34.956C6.88303 34.956 4.3769 34.1327 2.61202 32.486C0.870675 30.8393 0 28.2933 0 24.848C0 24.1133 0.0235317 23.404 0.0705952 22.72C0.141191 22.036 0.223552 21.3773 0.317678 20.744C0.764782 18.1093 1.57663 15.842 2.75321 13.942C3.95333 12.0167 5.4829 10.5473 7.3419 9.534C9.22444 8.49533 11.3894 7.976 13.8367 7.976C15.7427 7.976 17.4135 8.26733 18.8489 8.85C20.2844 9.40733 21.4021 10.2687 22.2022 11.434C23.0258 12.5993 23.4376 14.0687 23.4376 15.842C23.4376 16.1713 23.4258 16.5133 23.4023 16.868C23.3788 17.2227 23.3317 17.5773 23.2611 17.932H19.2019C19.2725 17.6787 19.3078 17.4253 19.3078 17.172C19.3313 16.9187 19.3431 16.678 19.3431 16.45C19.3431 15.3607 19.1078 14.4613 18.6371 13.752C18.19 13.0173 17.5429 12.4853 16.6958 12.156C15.8722 11.8013 14.8838 11.624 13.7308 11.624C12.4365 11.624 11.2717 11.8393 10.2363 12.27C9.20091 12.7007 8.29494 13.3213 7.51839 14.132C6.74184 14.9173 6.09472 15.88 5.57702 17.02C5.08286 18.16 4.71811 19.4267 4.4828 20.82C4.38867 21.2507 4.31807 21.6433 4.27101 21.998C4.22395 22.3527 4.17688 22.682 4.12982 22.986C4.10629 23.29 4.08276 23.5813 4.05923 23.86C4.05923 24.1133 4.05923 24.392 4.05923 24.696C4.05923 26.216 4.29454 27.47 4.76518 28.458C5.23581 29.4207 5.93 30.1427 6.84774 30.624C7.76547 31.08 8.88323 31.308 10.201 31.308C11.6364 31.308 12.9072 31.08 14.0132 30.624C15.1191 30.1427 16.0369 29.446 16.7664 28.534C17.4958 27.5967 17.9783 26.4313 18.2136 25.038H22.0963C21.7669 27.2927 21.0256 29.1547 19.8726 30.624C18.743 32.0933 17.3311 33.1827 15.6368 33.892C13.9661 34.6013 12.1306 34.956 10.1304 34.956Z" fill="white"/>
<path d="M36.2722 34.956C34.0131 34.956 32.0835 34.576 30.4833 33.816C28.9067 33.056 27.6948 31.916 26.8477 30.396C26.0006 28.876 25.577 27.0013 25.577 24.772C25.577 24.1387 25.6005 23.5307 25.6476 22.948C25.6946 22.34 25.7652 21.7447 25.8594 21.162C26.2829 18.4513 27.0948 16.108 28.2949 14.132C29.5185 12.156 31.0952 10.636 33.0248 9.572C34.9544 8.508 37.2134 7.976 39.8019 7.976C42.061 7.976 43.9788 8.356 45.5554 9.116C47.1556 9.876 48.3792 11.016 49.2264 12.536C50.0971 14.056 50.5324 15.9307 50.5324 18.16C50.5324 18.7427 50.5089 19.3253 50.4618 19.908C50.4147 20.4907 50.3441 21.0733 50.25 21.656C49.85 24.3667 49.0381 26.7227 47.8145 28.724C46.5908 30.7253 45.0024 32.2707 43.0493 33.36C41.1197 34.424 38.8606 34.956 36.2722 34.956ZM36.2722 31.308C37.6841 31.308 38.943 31.0927 40.049 30.662C41.155 30.2313 42.1198 29.598 42.9434 28.762C43.767 27.926 44.4377 26.9127 44.9554 25.722C45.4731 24.5313 45.8613 23.1887 46.1202 21.694C46.1673 21.314 46.2143 20.972 46.2614 20.668C46.3084 20.3387 46.3437 20.0473 46.3673 19.794C46.3908 19.5407 46.4026 19.3 46.4026 19.072C46.4261 18.8187 46.4379 18.578 46.4379 18.35C46.4379 16.8553 46.179 15.614 45.6613 14.626C45.1436 13.6127 44.3788 12.8527 43.367 12.346C42.3786 11.8393 41.1785 11.586 39.7666 11.586C38.3782 11.586 37.1193 11.814 35.9898 12.27C34.8838 12.7007 33.919 13.334 33.0954 14.17C32.2718 14.9807 31.6011 15.9813 31.0834 17.172C30.5657 18.3627 30.1774 19.7053 29.9186 21.2C29.8715 21.58 29.8245 21.9347 29.7774 22.264C29.7539 22.568 29.7303 22.8593 29.7068 23.138C29.6833 23.3913 29.6597 23.632 29.6362 23.86C29.6362 24.088 29.6362 24.316 29.6362 24.544C29.6362 26.0387 29.8951 27.2927 30.4128 28.306C30.9305 29.294 31.6835 30.0413 32.6718 30.548C33.6601 31.0547 34.8603 31.308 36.2722 31.308Z" fill="white"/>
<path d="M52.6558 34.5L56.8915 8.432H67.7631C69.5751 8.432 71.0458 8.72333 72.1753 9.306C73.3284 9.86333 74.1638 10.6487 74.6815 11.662C75.2227 12.6753 75.4933 13.8787 75.4933 15.272C75.4933 16.7667 75.2698 18.1093 74.8227 19.3C74.3991 20.4653 73.7755 21.466 72.9519 22.302C72.1518 23.138 71.187 23.7713 70.0575 24.202C68.928 24.6327 67.669 24.848 66.2806 24.848H58.1975L56.5738 34.5H52.6558ZM58.7622 21.2H66.21C67.2454 21.2 68.1514 20.9847 68.928 20.554C69.728 20.1233 70.3516 19.5027 70.7987 18.692C71.2458 17.8813 71.4694 16.8933 71.4694 15.728C71.4694 14.5627 71.1635 13.6633 70.5517 13.03C69.9398 12.3967 68.9868 12.08 67.6925 12.08H60.28L58.7622 21.2Z" fill="white"/>
<path d="M76.1637 34.5L80.4347 8.432H92.5771C94.2008 8.432 95.5421 8.698 96.601 9.23C97.6599 9.73667 98.4483 10.4587 98.966 11.396C99.4837 12.308 99.7425 13.41 99.7425 14.702C99.7425 16.2727 99.5072 17.6533 99.0366 18.844C98.5894 20.0347 97.9423 21.0353 97.0952 21.846C96.2716 22.6567 95.2832 23.29 94.1302 23.746L97.4482 34.5H93.283L90.2827 24.468H81.776L80.117 34.5H76.1637ZM82.3761 20.858H90.671C91.6123 20.858 92.4594 20.63 93.2124 20.174C93.9655 19.718 94.5655 19.072 95.0126 18.236C95.4597 17.4 95.6833 16.3993 95.6833 15.234C95.6833 14.2207 95.4009 13.448 94.8361 12.916C94.2714 12.3587 93.4125 12.08 92.2594 12.08H83.8233L82.3761 20.858Z" fill="white"/>
<path d="M101.673 34.5L105.908 8.432H124.687L124.087 12.08H109.297L108.097 19.338H121.369L120.804 22.986H107.461L106.191 30.852H121.263L120.663 34.5H101.673Z" fill="white"/>
<path d="M154.412 34.5L158.648 8.432H162.566L158.93 30.814H171.037L170.437 34.5H154.412Z" fill="white"/>
<path d="M173.853 34.5L178.124 8.432H182.077L177.806 34.5H173.853Z" fill="white"/>
<path d="M183.574 34.5L187.81 8.432H191.622L199.67 24.62C199.787 24.848 199.929 25.1393 200.093 25.494C200.258 25.8487 200.423 26.2033 200.588 26.558C200.752 26.9127 200.893 27.242 201.011 27.546L201.223 27.508C201.27 27.0773 201.329 26.6087 201.399 26.102C201.47 25.57 201.529 25.114 201.576 24.734L204.223 8.432H208L203.764 34.5H200.093L192.257 18.692C192.045 18.2867 191.775 17.7293 191.445 17.02C191.116 16.3107 190.834 15.7153 190.598 15.234H190.422C190.375 15.6647 190.304 16.1967 190.21 16.83C190.116 17.4633 190.034 17.9953 189.963 18.426L187.351 34.5H183.574Z" fill="white"/>
<path d="M156.106 0.5L126.559 17.5758L138.556 25.4242L120.808 42.5L151.049 24.7879L138.556 17.1515L156.106 0.5Z" fill="url(#paint0_linear_341_7)"/>
<defs>
<linearGradient id="paint0_linear_341_7" x1="138.457" y1="0.5" x2="138.457" y2="42.5" gradientUnits="userSpaceOnUse">
<stop stop-color="#FF3103"/>
<stop offset="1" stop-color="#FFBF34"/>
</linearGradient>
</defs>
</svg>
